<svg width="286" height="105" viewBox="0 0 286 105" fill="none" xmlns="http://www.w3.org/2000/svg">
  <path
    d="M11.4 40V11.6H0.2V5H30.7V11.6H19.5V40H11.4ZM33.9223 40V13.1H41.3723V20.7L40.3223 18.5C41.1223 16.6 42.4056 15.1667 44.1723 14.2C45.9389 13.2 48.0889 12.7 50.6223 12.7V19.9C50.2889 19.8667 49.9889 19.85 49.7223 19.85C49.4556 19.8167 49.1723 19.8 48.8723 19.8C46.7389 19.8 45.0056 20.4167 43.6723 21.65C42.3723 22.85 41.7223 24.7333 41.7223 27.3V40H33.9223ZM55.309 40V13.1H63.109V40H55.309ZM59.209 9.35C57.7757 9.35 56.609 8.93333 55.709 8.1C54.809 7.26666 54.359 6.23333 54.359 5C54.359 3.76666 54.809 2.73333 55.709 1.9C56.609 1.06666 57.7757 0.649997 59.209 0.649997C60.6423 0.649997 61.809 1.05 62.709 1.85C63.609 2.61667 64.059 3.61667 64.059 4.85C64.059 6.15 63.609 7.23333 62.709 8.1C61.8423 8.93333 60.6757 9.35 59.209 9.35ZM83.348 40.4C80.448 40.4 77.8647 39.8167 75.598 38.65C73.3314 37.45 71.548 35.8 70.248 33.7C68.9814 31.6 68.348 29.2167 68.348 26.55C68.348 23.85 68.9814 21.4667 70.248 19.4C71.548 17.3 73.3314 15.6667 75.598 14.5C77.8647 13.3 80.448 12.7 83.348 12.7C86.1814 12.7 88.648 13.3 90.748 14.5C92.848 15.6667 94.398 17.35 95.398 19.55L89.348 22.8C88.648 21.5333 87.7647 20.6 86.698 20C85.6647 19.4 84.5314 19.1 83.298 19.1C81.9647 19.1 80.7647 19.4 79.698 20C78.6314 20.6 77.7814 21.45 77.148 22.55C76.548 23.65 76.248 24.9833 76.248 26.55C76.248 28.1167 76.548 29.45 77.148 30.55C77.7814 31.65 78.6314 32.5 79.698 33.1C80.7647 33.7 81.9647 34 83.298 34C84.5314 34 85.6647 33.7167 86.698 33.15C87.7647 32.55 88.648 31.6 89.348 30.3L95.398 33.6C94.398 35.7667 92.848 37.45 90.748 38.65C88.648 39.8167 86.1814 40.4 83.348 40.4ZM106.193 34.5L106.393 25L118.943 13.1H128.243L116.193 25.35L112.143 28.65L106.193 34.5ZM99.7426 40V2.9H107.543V40H99.7426ZM119.793 40L110.693 28.7L115.593 22.65L129.243 40H119.793ZM143.75 40.4C140.584 40.4 138.117 39.6 136.35 38C134.584 36.3667 133.7 33.95 133.7 30.75V7.15H141.5V30.65C141.5 31.7833 141.8 32.6667 142.4 33.3C143 33.9 143.817 34.2 144.85 34.2C146.084 34.2 147.134 33.8667 148 33.2L150.1 38.7C149.3 39.2667 148.334 39.7 147.2 40C146.1 40.2667 144.95 40.4 143.75 40.4ZM129.55 19.7V13.7H148.2V19.7H129.55ZM157.391 50.1C155.991 50.1 154.607 49.8833 153.241 49.45C151.874 49.0167 150.757 48.4167 149.891 47.65L152.741 42.1C153.341 42.6333 154.024 43.05 154.791 43.35C155.591 43.65 156.374 43.8 157.141 43.8C158.241 43.8 159.107 43.5333 159.741 43C160.407 42.5 161.007 41.65 161.541 40.45L162.941 37.15L163.541 36.3L173.191 13.1H180.691L168.541 41.65C167.674 43.8167 166.674 45.5167 165.541 46.75C164.441 47.9833 163.207 48.85 161.841 49.35C160.507 49.85 159.024 50.1 157.391 50.1ZM161.991 41.05L149.991 13.1H158.041L167.341 35.6L161.991 41.05ZM214.384 12.7C216.517 12.7 218.417 13.1333 220.084 14C221.784 14.8333 223.117 16.1333 224.084 17.9C225.05 19.6333 225.534 21.8667 225.534 24.6V40H217.734V25.8C217.734 23.6333 217.25 22.0333 216.284 21C215.35 19.9667 214.017 19.45 212.284 19.45C211.05 19.45 209.934 19.7167 208.934 20.25C207.967 20.75 207.2 21.5333 206.634 22.6C206.1 23.6667 205.834 25.0333 205.834 26.7V40H198.034V2.9H205.834V20.55L204.084 18.3C205.05 16.5 206.434 15.1167 208.234 14.15C210.034 13.1833 212.084 12.7 214.384 12.7ZM249.104 40V34.75L248.604 33.6V24.2C248.604 22.5333 248.087 21.2333 247.054 20.3C246.054 19.3667 244.504 18.9 242.404 18.9C240.971 18.9 239.554 19.1333 238.154 19.6C236.787 20.0333 235.621 20.6333 234.654 21.4L231.854 15.95C233.321 14.9167 235.087 14.1167 237.154 13.55C239.221 12.9833 241.321 12.7 243.454 12.7C247.554 12.7 250.737 13.6667 253.004 15.6C255.271 17.5333 256.404 20.55 256.404 24.65V40H249.104ZM240.904 40.4C238.804 40.4 237.004 40.05 235.504 39.35C234.004 38.6167 232.854 37.6333 232.054 36.4C231.254 35.1667 230.854 33.7833 230.854 32.25C230.854 30.65 231.237 29.25 232.004 28.05C232.804 26.85 234.054 25.9167 235.754 25.25C237.454 24.55 239.671 24.2 242.404 24.2H249.554V28.75H243.254C241.421 28.75 240.154 29.05 239.454 29.65C238.787 30.25 238.454 31 238.454 31.9C238.454 32.9 238.837 33.7 239.604 34.3C240.404 34.8667 241.487 35.15 242.854 35.15C244.154 35.15 245.321 34.85 246.354 34.25C247.387 33.6167 248.137 32.7 248.604 31.5L249.804 35.1C249.237 36.8333 248.204 38.15 246.704 39.05C245.204 39.95 243.271 40.4 240.904 40.4ZM272.513 40.4C270.213 40.4 267.997 40.1333 265.863 39.6C263.763 39.0333 262.097 38.3333 260.863 37.5L263.463 31.9C264.697 32.6667 266.147 33.3 267.813 33.8C269.513 34.2667 271.18 34.5 272.813 34.5C274.613 34.5 275.88 34.2833 276.613 33.85C277.38 33.4167 277.763 32.8167 277.763 32.05C277.763 31.4167 277.463 30.95 276.863 30.65C276.297 30.3167 275.53 30.0667 274.563 29.9C273.597 29.7333 272.53 29.5667 271.363 29.4C270.23 29.2333 269.08 29.0167 267.913 28.75C266.747 28.45 265.68 28.0167 264.713 27.45C263.747 26.8833 262.963 26.1167 262.363 25.15C261.797 24.1833 261.513 22.9333 261.513 21.4C261.513 19.7 261.997 18.2 262.963 16.9C263.963 15.6 265.397 14.5833 267.263 13.85C269.13 13.0833 271.363 12.7 273.963 12.7C275.797 12.7 277.663 12.9 279.563 13.3C281.463 13.7 283.047 14.2833 284.313 15.05L281.713 20.6C280.413 19.8333 279.097 19.3167 277.763 19.05C276.463 18.75 275.197 18.6 273.963 18.6C272.23 18.6 270.963 18.8333 270.163 19.3C269.363 19.7667 268.963 20.3667 268.963 21.1C268.963 21.7667 269.247 22.2667 269.813 22.6C270.413 22.9333 271.197 23.2 272.163 23.4C273.13 23.6 274.18 23.7833 275.313 23.95C276.48 24.0833 277.647 24.3 278.813 24.6C279.98 24.9 281.03 25.3333 281.963 25.9C282.93 26.4333 283.713 27.1833 284.313 28.15C284.913 29.0833 285.213 30.3167 285.213 31.85C285.213 33.5167 284.713 35 283.713 36.3C282.713 37.5667 281.263 38.5667 279.363 39.3C277.497 40.0333 275.213 40.4 272.513 40.4Z"
    fill="#FFFCFC" />
  <path
    d="M11.4 40H10.4V41H11.4V40ZM11.4 11.6H12.4V10.6H11.4V11.6ZM0.2 11.6H-0.8V12.6H0.2V11.6ZM0.2 5V4H-0.8V5H0.2ZM30.7 5H31.7V4H30.7V5ZM30.7 11.6V12.6H31.7V11.6H30.7ZM19.5 11.6V10.6H18.5V11.6H19.5ZM19.5 40V41H20.5V40H19.5ZM12.4 40V11.6H10.4V40H12.4ZM11.4 10.6H0.2V12.6H11.4V10.6ZM1.2 11.6V5H-0.8V11.6H1.2ZM0.2 6H30.7V4H0.2V6ZM29.7 5V11.6H31.7V5H29.7ZM30.7 10.6H19.5V12.6H30.7V10.6ZM18.5 11.6V40H20.5V11.6H18.5ZM19.5 39H11.4V41H19.5V39ZM33.9223 40H32.9223V41H33.9223V40ZM33.9223 13.1V12.1H32.9223V13.1H33.9223ZM41.3723 13.1H42.3723V12.1H41.3723V13.1ZM41.3723 20.7L40.4698 21.1307L42.3723 20.7H41.3723ZM40.3223 18.5L39.4006 18.1119L39.2264 18.5256L39.4198 18.9307L40.3223 18.5ZM44.1723 14.2L44.6523 15.0773L44.6586 15.0738L44.6649 15.0703L44.1723 14.2ZM50.6223 12.7H51.6223V11.7H50.6223V12.7ZM50.6223 19.9L50.5228 20.895L51.6223 21.005V19.9H50.6223ZM49.7223 19.85L49.5982 20.8423L49.66 20.85H49.7223V19.85ZM43.6723 21.65L44.3505 22.3848L44.3513 22.3841L43.6723 21.65ZM41.7223 40V41H42.7223V40H41.7223ZM34.9223 40V13.1H32.9223V40H34.9223ZM33.9223 14.1H41.3723V12.1H33.9223V14.1ZM40.3723 13.1V20.7H42.3723V13.1H40.3723ZM42.2747 20.2693L41.2247 18.0693L39.4198 18.9307L40.4698 21.1307L42.2747 20.2693ZM41.2439 18.8881C41.9585 17.191 43.0889 15.9327 44.6523 15.0773L43.6923 13.3227C41.7223 14.4006 40.2861 16.009 39.4006 18.1119L41.2439 18.8881ZM44.6649 15.0703C46.2484 14.1739 48.2193 13.7 50.6223 13.7V11.7C47.9585 11.7 45.6295 12.2261 43.6797 13.3297L44.6649 15.0703ZM49.6223 12.7V19.9H51.6223V12.7H49.6223ZM50.7218 18.905C50.3633 18.8691 50.0293 18.85 49.7223 18.85V20.85C49.9486 20.85 50.2145 20.8642 50.5228 20.895L50.7218 18.905ZM49.8463 18.8577C49.5341 18.8187 49.209 18.8 48.8723 18.8V20.8C49.1355 20.8 49.3771 20.8146 49.5982 20.8423L49.8463 18.8577ZM48.8723 18.8C46.534 18.8 44.5431 19.4823 42.9932 20.9159L44.3513 22.3841C45.4681 21.351 46.9439 20.8 48.8723 20.8V18.8ZM42.994 20.9152C41.4109 22.3765 40.7223 24.5818 40.7223 27.3H42.7223C42.7223 24.8849 43.3336 23.3235 44.3505 22.3848L42.994 20.9152ZM40.7223 27.3V40H42.7223V27.3H40.7223ZM41.7223 39H33.9223V41H41.7223V39ZM55.309 40H54.309V41H55.309V40ZM55.309 13.1V12.1H54.309V13.1H55.309ZM63.109 13.1H64.109V12.1H63.109V13.1ZM63.109 40V41H64.109V40H63.109ZM55.709 8.1L55.0296 8.83376L55.0296 8.83376L55.709 8.1ZM55.709 1.9L56.3884 2.63376L56.3884 2.63376L55.709 1.9ZM62.709 1.85L62.0446 2.59741L62.0525 2.60441L62.0605 2.61124L62.709 1.85ZM62.709 8.1L63.4021 8.82083L63.4026 8.82032L62.709 8.1ZM56.309 40V13.1H54.309V40H56.309ZM55.309 14.1H63.109V12.1H55.309V14.1ZM62.109 13.1V40H64.109V13.1H62.109ZM63.109 39H55.309V41H63.109V39ZM59.209 8.35C57.9823 8.35 57.0728 7.99994 56.3884 7.36624L55.0296 8.83376C56.1452 9.86672 57.569 10.35 59.209 10.35V8.35ZM56.3884 7.36624C55.6941 6.72335 55.359 5.95652 55.359 5H53.359C53.359 6.51014 53.9239 7.80998 55.0296 8.83376L56.3884 7.36624ZM55.359 5C55.359 4.04347 55.6941 3.27665 56.3884 2.63376L55.0296 1.16624C53.9239 2.19002 53.359 3.48985 53.359 5H55.359ZM56.3884 2.63376C57.0728 2.00006 57.9823 1.65 59.209 1.65V-0.350003C57.569 -0.350003 56.1452 0.133273 55.0296 1.16624L56.3884 2.63376ZM59.209 1.65C60.4465 1.65 61.3613 1.99005 62.0446 2.59741L63.3733 1.10259C62.2566 0.109945 60.8381 -0.350003 59.209 -0.350003V1.65ZM62.0605 2.61124C62.7267 3.17872 63.059 3.89517 63.059 4.85H65.059C65.059 3.33816 64.4913 2.05462 63.3575 1.08876L62.0605 2.61124ZM63.059 4.85C63.059 5.89058 62.7109 6.70991 62.0153 7.37968L63.4026 8.82032C64.5071 7.75676 65.059 6.40942 65.059 4.85H63.059ZM62.0159 7.37917C61.3748 7.99563 60.4774 8.35 59.209 8.35V10.35C60.8739 10.35 62.3099 9.87103 63.4021 8.82083L62.0159 7.37917ZM75.598 38.65L75.1301 39.5338L75.1404 39.5391L75.598 38.65ZM70.248 33.7L69.3917 34.2165L69.3978 34.2264L70.248 33.7ZM70.248 19.4L69.3978 18.8736L69.3954 18.8774L70.248 19.4ZM75.598 14.5L76.0557 15.3892L76.0659 15.3838L75.598 14.5ZM90.748 14.5L90.2519 15.3683L90.2624 15.3742L90.748 14.5ZM95.398 19.55L95.8713 20.4309L96.6956 19.9881L96.3084 19.1362L95.398 19.55ZM89.348 22.8L88.4728 23.2837L88.9508 24.1486L89.8213 23.6809L89.348 22.8ZM86.698 20L86.1959 20.8649L86.2078 20.8716L86.698 20ZM79.698 20L80.1883 20.8716L80.1883 20.8716L79.698 20ZM77.148 22.55L76.2814 22.051L76.2757 22.061L76.2702 22.0711L77.148 22.55ZM77.148 30.55L76.2702 31.0289L76.2757 31.039L76.2814 31.049L77.148 30.55ZM79.698 33.1L80.1883 32.2284L80.1883 32.2284L79.698 33.1ZM86.698 33.15L87.1789 34.0269L87.1883 34.0216L86.698 33.15ZM89.348 30.3L89.8269 29.4221L88.9442 28.9407L88.4676 29.8259L89.348 30.3ZM95.398 33.6L96.306 34.0191L96.6979 33.1699L95.8769 32.7221L95.398 33.6ZM90.748 38.65L91.2337 39.5242L91.2442 39.5182L90.748 38.65ZM83.348 39.4C80.5852 39.4 78.1624 38.8452 76.0557 37.7609L75.1404 39.5391C77.567 40.7881 80.3109 41.4 83.348 41.4V39.4ZM76.0659 37.7662C73.9499 36.646 72.3012 35.1167 71.0983 33.1736L69.3978 34.2264C70.7949 36.4833 72.7129 38.254 75.1302 39.5338L76.0659 37.7662ZM71.1043 33.1835C69.9398 31.2529 69.348 29.0511 69.348 26.55H67.348C67.348 29.3822 68.0229 31.9471 69.3918 34.2165L71.1043 33.1835ZM69.348 26.55C69.348 24.0128 69.9411 21.8145 71.1006 19.9226L69.3954 18.8774C68.0217 21.1188 67.348 23.6872 67.348 26.55H69.348ZM71.0983 19.9264C72.2996 17.9858 73.9449 16.4755 76.0557 15.3891L75.1404 13.6109C72.7178 14.8578 70.7965 16.6142 69.3978 18.8736L71.0983 19.9264ZM76.0659 15.3838C78.1705 14.2696 80.5896 13.7 83.348 13.7V11.7C80.3065 11.7 77.5589 12.3304 75.1302 13.6162L76.0659 15.3838ZM83.348 13.7C86.0374 13.7 88.3271 14.2684 90.2519 15.3682L91.2442 13.6318C88.969 12.3316 86.3253 11.7 83.348 11.7V13.7ZM90.2624 15.3742C92.174 16.4361 93.5757 17.9575 94.4877 19.9638L96.3084 19.1362C95.2204 16.7425 93.5221 14.8972 91.2337 13.6258L90.2624 15.3742ZM94.9248 18.6691L88.8748 21.9191L89.8213 23.6809L95.8713 20.4309L94.9248 18.6691ZM90.2233 22.3163C89.4501 20.9171 88.4443 19.8349 87.1883 19.1284L86.2078 20.8716C87.0851 21.3651 87.846 22.1495 88.4728 23.2837L90.2233 22.3163ZM87.2002 19.1352C86.0093 18.4437 84.7018 18.1 83.298 18.1V20.1C84.3609 20.1 85.3202 20.3563 86.1959 20.8648L87.2002 19.1352ZM83.298 18.1C81.8088 18.1 80.4373 18.4368 79.2078 19.1284L80.1883 20.8716C81.0921 20.3632 82.1207 20.1 83.298 20.1V18.1ZM79.2078 19.1284C77.9785 19.8199 77.001 20.8013 76.2814 22.051L78.0147 23.049C78.5618 22.0987 79.2843 21.3801 80.1883 20.8716L79.2078 19.1284ZM76.2702 22.0711C75.5724 23.3504 75.248 24.8572 75.248 26.55H77.248C77.248 25.1095 77.5237 23.9496 78.0259 23.0289L76.2702 22.0711ZM75.248 26.55C75.248 28.2428 75.5724 29.7496 76.2702 31.0289L78.0259 30.0711C77.5237 29.1504 77.248 27.9905 77.248 26.55H75.248ZM76.2814 31.049C77.001 32.2987 77.9785 33.2801 79.2078 33.9716L80.1883 32.2284C79.2843 31.7199 78.5618 31.0013 78.0147 30.051L76.2814 31.049ZM79.2078 33.9716C80.4373 34.6632 81.8088 35 83.298 35V33C82.1207 33 81.0921 32.7368 80.1883 32.2284L79.2078 33.9716ZM83.298 35C84.6914 35 85.9912 34.6781 87.1789 34.0268L86.2172 32.2732C85.3382 32.7552 84.3714 33 83.298 33V35ZM87.1883 34.0216C88.4513 33.3111 89.4574 32.2062 90.2285 30.7741L88.4676 29.8259C87.8387 30.9938 87.0781 31.7889 86.2078 32.2784L87.1883 34.0216ZM88.8692 31.1779L94.9192 34.4779L95.8769 32.7221L89.8269 29.4221L88.8692 31.1779ZM94.4901 33.1809C93.5785 35.156 92.1739 36.6835 90.2519 37.7818L91.2442 39.5182C93.5222 38.2165 95.2176 36.3774 96.306 34.0191L94.4901 33.1809ZM90.2624 37.7758C88.3356 38.8463 86.042 39.4 83.348 39.4V41.4C86.3207 41.4 88.9605 40.787 91.2337 39.5242L90.2624 37.7758ZM106.193 34.5L105.193 34.479L105.141 36.9362L106.894 35.2131L106.193 34.5ZM106.393 25L105.705 24.2744L105.402 24.5616L105.393 24.979L106.393 25ZM118.943 13.1V12.1H118.544L118.255 12.3743L118.943 13.1ZM128.243 13.1L128.955 13.8013L130.629 12.1H128.243V13.1ZM116.193 25.35L116.824 26.1252L116.867 26.0905L116.905 26.0513L116.193 25.35ZM112.143 28.65L111.511 27.8748L111.475 27.9042L111.441 27.9369L112.143 28.65ZM99.7426 40H98.7426V41H99.7426V40ZM99.7426 2.9V1.9H98.7426V2.9H99.7426ZM107.543 2.9H108.543V1.9H107.543V2.9ZM107.543 40V41H108.543V40H107.543ZM119.793 40L119.014 40.6272L119.314 41H119.793V40ZM110.693 28.7L109.915 28.0706L109.407 28.6982L109.914 29.3272L110.693 28.7ZM115.593 22.65L116.379 22.0317L115.604 21.0471L114.815 22.0206L115.593 22.65ZM129.243 40V41H131.302L130.029 39.3817L129.243 40ZM107.192 34.521L107.392 25.021L105.393 24.979L105.193 34.479L107.192 34.521ZM107.081 25.7256L119.631 13.8256L118.255 12.3743L105.705 24.2744L107.081 25.7256ZM118.943 14.1H128.243V12.1H118.943V14.1ZM127.53 12.3987L115.48 24.6487L116.905 26.0513L128.955 13.8013L127.53 12.3987ZM115.561 24.5748L111.511 27.8748L112.774 29.4252L116.824 26.1252L115.561 24.5748ZM111.441 27.9369L105.491 33.7869L106.894 35.2131L112.844 29.3631L111.441 27.9369ZM100.743 40V2.9H98.7426V40H100.743ZM99.7426 3.9H107.543V1.9H99.7426V3.9ZM106.543 2.9V40H108.543V2.9H106.543ZM107.543 39H99.7426V41H107.543V39ZM120.571 39.3728L111.471 28.0728L109.914 29.3272L119.014 40.6272L120.571 39.3728ZM111.47 29.3294L116.37 23.2794L114.815 22.0206L109.915 28.0706L111.47 29.3294ZM114.807 23.2683L128.457 40.6183L130.029 39.3817L116.379 22.0317L114.807 23.2683ZM129.243 39H119.793V41H129.243V39ZM136.35 38L135.671 38.7343L135.679 38.7412L136.35 38ZM133.7 7.15V6.15H132.7V7.15H133.7ZM141.5 7.15H142.5V6.15H141.5V7.15ZM142.4 33.3L141.674 33.9877L141.684 33.9976L141.693 34.0071L142.4 33.3ZM148 33.2L148.935 32.8433L148.455 31.5883L147.391 32.4074L148 33.2ZM150.1 38.7L150.678 39.516L151.311 39.0678L151.035 38.3433L150.1 38.7ZM147.2 40L147.436 40.9719L147.446 40.9694L147.456 40.9667L147.2 40ZM129.55 19.7H128.55V20.7H129.55V19.7ZM129.55 13.7V12.7H128.55V13.7H129.55ZM148.2 13.7H149.2V12.7H148.2V13.7ZM148.2 19.7V20.7H149.2V19.7H148.2ZM143.75 39.4C140.749 39.4 138.551 38.6438 137.022 37.2588L135.679 38.7412C137.683 40.5562 140.419 41.4 143.75 41.4V39.4ZM137.029 37.2657C135.529 35.8784 134.7 33.7675 134.7 30.75H132.7C132.7 34.1325 133.639 36.8549 135.672 38.7343L137.029 37.2657ZM134.7 30.75V7.15H132.7V30.75H134.7ZM133.7 8.15H141.5V6.15H133.7V8.15ZM140.5 7.15V30.65H142.5V7.15H140.5ZM140.5 30.65C140.5 31.9601 140.851 33.1182 141.674 33.9877L143.126 32.6123C142.75 32.2151 142.5 31.6066 142.5 30.65H140.5ZM141.693 34.0071C142.52 34.8341 143.613 35.2 144.85 35.2V33.2C144.021 33.2 143.481 32.9659 143.107 32.5929L141.693 34.0071ZM144.85 35.2C146.275 35.2 147.546 34.8108 148.61 33.9926L147.391 32.4074C146.721 32.9225 145.893 33.2 144.85 33.2V35.2ZM147.066 33.5567L149.166 39.0567L151.035 38.3433L148.935 32.8433L147.066 33.5567ZM149.522 37.884C148.837 38.3695 147.984 38.758 146.944 39.0333L147.456 40.9667C148.683 40.642 149.764 40.1638 150.678 39.516L149.522 37.884ZM146.965 39.0281C145.946 39.275 144.876 39.4 143.75 39.4V41.4C145.025 41.4 146.254 41.2583 147.436 40.9719L146.965 39.0281ZM130.55 19.7V13.7H128.55V19.7H130.55ZM129.55 14.7H148.2V12.7H129.55V14.7ZM147.2 13.7V19.7H149.2V13.7H147.2ZM148.2 18.7H129.55V20.7H148.2V18.7ZM153.241 49.45L153.543 48.4968L153.241 49.45ZM149.891 47.65L149.001 47.1932L148.646 47.8843L149.228 48.399L149.891 47.65ZM152.741 42.1L153.405 41.3526L152.441 40.4953L151.851 41.6432L152.741 42.1ZM154.791 43.35L154.426 44.2812L154.433 44.2838L154.44 44.2863L154.791 43.35ZM159.741 43L159.141 42.2L159.118 42.2169L159.096 42.2351L159.741 43ZM161.541 40.45L162.454 40.8561L162.458 40.8484L162.461 40.8405L161.541 40.45ZM162.941 37.15L162.124 36.5733L162.062 36.6608L162.02 36.7594L162.941 37.15ZM163.541 36.3L164.358 36.8767L164.421 36.7863L164.464 36.6841L163.541 36.3ZM173.191 13.1V12.1H172.524L172.267 12.7159L173.191 13.1ZM180.691 13.1L181.611 13.4916L182.203 12.1H180.691V13.1ZM168.541 41.65L167.62 41.2584L167.616 41.2685L167.612 41.2786L168.541 41.65ZM165.541 46.75L164.804 46.0734L164.799 46.0788L164.794 46.0844L165.541 46.75ZM161.841 49.35L161.497 48.4108L161.49 48.4137L161.841 49.35ZM161.991 41.05L161.072 41.4445L161.66 42.8144L162.704 41.7505L161.991 41.05ZM149.991 13.1V12.1H148.473L149.072 13.4945L149.991 13.1ZM158.041 13.1L158.965 12.718L158.709 12.1H158.041V13.1ZM167.341 35.6L168.054 36.3005L168.517 35.8289L168.265 35.218L167.341 35.6ZM157.391 49.1C156.096 49.1 154.814 48.8999 153.543 48.4968L152.938 50.4032C154.4 50.8668 155.886 51.1 157.391 51.1V49.1ZM153.543 48.4968C152.278 48.0958 151.293 47.5559 150.553 46.901L149.228 48.399C150.221 49.2775 151.47 49.9375 152.938 50.4032L153.543 48.4968ZM150.78 48.1068L153.63 42.5568L151.851 41.6432L149.001 47.1932L150.78 48.1068ZM152.076 42.8474C152.767 43.4613 153.552 43.9393 154.426 44.2812L155.155 42.4188C154.496 42.1607 153.914 41.8054 153.405 41.3526L152.076 42.8474ZM154.44 44.2863C155.339 44.6236 156.241 44.8 157.141 44.8V42.8C156.507 42.8 155.842 42.6764 155.142 42.4137L154.44 44.2863ZM157.141 44.8C158.398 44.8 159.519 44.4938 160.385 43.7649L159.096 42.2351C158.695 42.5729 158.083 42.8 157.141 42.8V44.8ZM160.341 43.8C161.201 43.155 161.888 42.1308 162.454 40.8561L160.627 40.0439C160.127 41.1692 159.614 41.845 159.141 42.2L160.341 43.8ZM162.461 40.8405L163.861 37.5405L162.02 36.7594L160.62 40.0595L162.461 40.8405ZM163.758 37.7267L164.358 36.8767L162.724 35.7233L162.124 36.5733L163.758 37.7267ZM164.464 36.6841L174.114 13.484L172.267 12.7159L162.617 35.9159L164.464 36.6841ZM173.191 14.1H180.691V12.1H173.191V14.1ZM179.77 12.7084L167.62 41.2584L169.461 42.0416L181.611 13.4916L179.77 12.7084ZM167.612 41.2786C166.774 43.3737 165.83 44.9569 164.804 46.0734L166.277 47.4266C167.518 46.0764 168.574 44.2596 169.469 42.0214L167.612 41.2786ZM164.794 46.0844C163.789 47.2116 162.689 47.9748 161.497 48.4109L162.184 50.2891C163.726 49.7252 165.092 48.755 166.287 47.4156L164.794 46.0844ZM161.49 48.4137C160.284 48.8659 158.921 49.1 157.391 49.1V51.1C159.126 51.1 160.731 50.8341 162.192 50.2863L161.49 48.4137ZM162.91 40.6555L150.91 12.7055L149.072 13.4945L161.072 41.4445L162.91 40.6555ZM149.991 14.1H158.041V12.1H149.991V14.1ZM157.116 13.482L166.416 35.982L168.265 35.218L158.965 12.718L157.116 13.482ZM166.627 34.8995L161.277 40.3495L162.704 41.7505L168.054 36.3005L166.627 34.8995ZM220.084 14L219.622 14.8872L219.633 14.8927L219.643 14.8979L220.084 14ZM224.084 17.9L223.206 18.38L223.21 18.3871L224.084 17.9ZM225.534 40V41H226.534V40H225.534ZM217.734 40H216.734V41H217.734V40ZM216.284 21L215.541 21.6703L215.547 21.6768L215.553 21.6832L216.284 21ZM208.934 20.25L209.393 21.1383L209.404 21.1324L208.934 20.25ZM206.634 22.6L205.75 22.1308L205.745 22.1417L205.739 22.1528L206.634 22.6ZM205.834 40V41H206.834V40H205.834ZM198.034 40H197.034V41H198.034V40ZM198.034 2.9V1.9H197.034V2.9H198.034ZM205.834 2.9H206.834V1.9H205.834V2.9ZM205.834 20.55L205.044 21.1639L206.834 23.4645V20.55H205.834ZM204.084 18.3L203.203 17.8269L202.895 18.4002L203.294 18.9139L204.084 18.3ZM208.234 14.15L208.707 15.031L208.707 15.031L208.234 14.15ZM214.384 13.7C216.378 13.7 218.116 14.1042 219.622 14.8872L220.545 13.1128C218.717 12.1625 216.656 11.7 214.384 11.7V13.7ZM219.643 14.8979C221.146 15.6345 222.332 16.7822 223.206 18.38L224.961 17.42C223.902 15.4844 222.421 14.0322 220.524 13.1021L219.643 14.8979ZM223.21 18.3871C224.068 19.9258 224.534 21.9759 224.534 24.6H226.534C226.534 21.7575 226.032 19.3408 224.957 17.4129L223.21 18.3871ZM224.534 24.6V40H226.534V24.6H224.534ZM225.534 39H217.734V41H225.534V39ZM218.734 40V25.8H216.734V40H218.734ZM218.734 25.8C218.734 23.5104 218.226 21.6128 217.014 20.3168L215.553 21.6832C216.274 22.4538 216.734 23.7562 216.734 25.8H218.734ZM217.026 20.3297C215.858 19.0369 214.225 18.45 212.284 18.45V20.45C213.809 20.45 214.843 20.8964 215.541 21.6703L217.026 20.3297ZM212.284 18.45C210.901 18.45 209.62 18.7504 208.463 19.3676L209.404 21.1324C210.247 20.6829 211.2 20.45 212.284 20.45V18.45ZM208.474 19.3618C207.307 19.9653 206.402 20.9052 205.75 22.1308L207.517 23.0692C207.999 22.1614 208.627 21.5347 209.393 21.1382L208.474 19.3618ZM205.739 22.1528C205.114 23.4023 204.834 24.9361 204.834 26.7H206.834C206.834 25.1306 207.086 23.9311 207.528 23.0472L205.739 22.1528ZM204.834 26.7V40H206.834V26.7H204.834ZM205.834 39H198.034V41H205.834V39ZM199.034 40V2.9H197.034V40H199.034ZM198.034 3.9H205.834V1.9H198.034V3.9ZM204.834 2.9V20.55H206.834V2.9H204.834ZM206.623 19.9361L204.873 17.6861L203.294 18.9139L205.044 21.1639L206.623 19.9361ZM204.965 18.7731C205.838 17.1462 207.08 15.9047 208.707 15.031L207.76 13.269C205.787 14.3286 204.262 15.8538 203.203 17.8269L204.965 18.7731ZM208.707 15.031C210.344 14.1518 212.228 13.7 214.384 13.7V11.7C211.94 11.7 209.723 12.2148 207.76 13.269L208.707 15.031ZM249.104 40H248.104V41H249.104V40ZM249.104 34.75H250.104V34.542L250.021 34.3513L249.104 34.75ZM248.604 33.6H247.604V33.808L247.687 33.9987L248.604 33.6ZM247.054 20.3L246.372 21.0311L246.378 21.0366L246.384 21.0421L247.054 20.3ZM238.154 19.6L238.456 20.5532L238.463 20.551L238.47 20.5487L238.154 19.6ZM234.654 21.4L233.764 21.857L234.321 22.9403L235.275 22.1835L234.654 21.4ZM231.854 15.95L231.278 15.1325L230.567 15.6334L230.964 16.407L231.854 15.95ZM237.154 13.55L236.889 12.5856L236.889 12.5856L237.154 13.55ZM253.004 15.6L253.653 14.8392L253.653 14.8392L253.004 15.6ZM256.404 40V41H257.404V40H256.404ZM235.504 39.35L235.065 40.2484L235.073 40.2524L235.081 40.2562L235.504 39.35ZM232.054 36.4L232.893 35.8558L232.893 35.8558L232.054 36.4ZM232.004 28.05L231.172 27.4953L231.166 27.5034L231.161 27.5116L232.004 28.05ZM235.754 25.25L236.119 26.181L236.127 26.1779L236.135 26.1747L235.754 25.25ZM249.554 24.2H250.554V23.2H249.554V24.2ZM249.554 28.75V29.75H250.554V28.75H249.554ZM239.454 29.65L238.803 28.8907L238.794 28.8986L238.785 28.9067L239.454 29.65ZM239.604 34.3L238.988 35.0875L239.006 35.1022L239.026 35.116L239.604 34.3ZM246.354 34.25L246.856 35.1148L246.866 35.1088L246.876 35.1026L246.354 34.25ZM248.604 31.5L249.553 31.1838L248.676 28.5549L247.672 31.1376L248.604 31.5ZM249.804 35.1L250.754 35.4107L250.857 35.097L250.753 34.7838L249.804 35.1ZM246.704 39.05L246.189 38.1925L246.189 38.1925L246.704 39.05ZM250.104 40V34.75H248.104V40H250.104ZM250.021 34.3513L249.521 33.2013L247.687 33.9987L248.187 35.1487L250.021 34.3513ZM249.604 33.6V24.2H247.604V33.6H249.604ZM249.604 24.2C249.604 22.3111 249.009 20.718 247.724 19.5579L246.384 21.0421C247.166 21.7487 247.604 22.7555 247.604 24.2H249.604ZM247.736 19.5689C246.473 18.3902 244.626 17.9 242.404 17.9V19.9C244.382 19.9 245.634 20.3431 246.372 21.0311L247.736 19.5689ZM242.404 17.9C240.86 17.9 239.337 18.1517 237.838 18.6513L238.47 20.5487C239.771 20.115 241.081 19.9 242.404 19.9V17.9ZM237.852 18.6468C236.388 19.111 235.108 19.7632 234.033 20.6165L235.275 22.1835C236.133 21.5035 237.187 20.9557 238.456 20.5532L237.852 18.6468ZM235.543 20.943L232.743 15.493L230.964 16.407L233.764 21.857L235.543 20.943ZM232.43 16.7675C233.786 15.8123 235.442 15.0563 237.418 14.5144L236.889 12.5856C234.732 13.1771 232.856 14.021 231.278 15.1325L232.43 16.7675ZM237.418 14.5144C239.399 13.9713 241.41 13.7 243.454 13.7V11.7C241.231 11.7 239.042 11.9954 236.889 12.5856L237.418 14.5144ZM243.454 13.7C247.405 13.7 250.327 14.6313 252.355 16.3608L253.653 14.8392C251.147 12.702 247.702 11.7 243.454 11.7V13.7ZM252.355 16.3608C254.324 18.0402 255.404 20.7273 255.404 24.65H257.404C257.404 20.3727 256.217 17.0264 253.653 14.8392L252.355 16.3608ZM255.404 24.65V40H257.404V24.65H255.404ZM256.404 39H249.104V41H256.404V39ZM240.904 39.4C238.912 39.4 237.264 39.0678 235.927 38.4438L235.081 40.2562C236.744 41.0322 238.696 41.4 240.904 41.4V39.4ZM235.943 38.4516C234.583 37.7869 233.581 36.9172 232.893 35.8558L231.215 36.9442C232.126 38.3494 233.424 39.4465 235.065 40.2484L235.943 38.4516ZM232.893 35.8558C232.203 34.7917 231.854 33.5989 231.854 32.25H229.854C229.854 33.9677 230.305 35.5416 231.215 36.9442L232.893 35.8558ZM231.854 32.25C231.854 30.8165 232.195 29.6083 232.847 28.5884L231.161 27.5116C230.279 28.8917 229.854 30.4835 229.854 32.25H231.854ZM232.836 28.6047C233.496 27.6153 234.559 26.7929 236.119 26.181L235.389 24.319C233.549 25.0405 232.112 26.0847 231.172 27.4953L232.836 28.6047ZM236.135 26.1747C237.67 25.5425 239.743 25.2 242.404 25.2V23.2C239.598 23.2 237.238 23.5575 235.373 24.3253L236.135 26.1747ZM242.404 25.2H249.554V23.2H242.404V25.2ZM248.554 24.2V28.75H250.554V24.2H248.554ZM249.554 27.75H243.254V29.75H249.554V27.75ZM243.254 27.75C241.383 27.75 239.794 28.0415 238.803 28.8907L240.105 30.4093C240.514 30.0585 241.458 29.75 243.254 29.75V27.75ZM238.785 28.9067C237.907 29.6971 237.454 30.7176 237.454 31.9H239.454C239.454 31.2824 239.668 30.8029 240.123 30.3933L238.785 28.9067ZM237.454 31.9C237.454 33.1978 237.971 34.292 238.988 35.0875L240.22 33.5125C239.703 33.108 239.454 32.6022 239.454 31.9H237.454ZM239.026 35.116C240.05 35.8412 241.359 36.15 242.854 36.15V34.15C241.615 34.15 240.758 33.8921 240.182 33.484L239.026 35.116ZM242.854 36.15C244.314 36.15 245.657 35.8111 246.856 35.1148L245.852 33.3852C244.984 33.8889 243.994 34.15 242.854 34.15V36.15ZM246.876 35.1026C248.108 34.3477 248.995 33.2526 249.536 31.8624L247.672 31.1376C247.279 32.1474 246.666 32.8857 245.831 33.3974L246.876 35.1026ZM247.655 31.8162L248.855 35.4162L250.753 34.7838L249.553 31.1838L247.655 31.8162ZM248.853 34.7893C248.358 36.3044 247.474 37.422 246.189 38.1925L247.218 39.9075C248.934 38.878 250.116 37.3622 250.754 35.4107L248.853 34.7893ZM246.189 38.1925C244.89 38.9719 243.151 39.4 240.904 39.4V41.4C243.39 41.4 245.517 40.9281 247.218 39.9075L246.189 38.1925ZM265.863 39.6L265.603 40.5655L265.612 40.5679L265.621 40.5701L265.863 39.6ZM260.863 37.5L259.956 37.0789L259.598 37.8516L260.303 38.3286L260.863 37.5ZM263.463 31.9L263.991 31.0507L263.032 30.4544L262.556 31.4789L263.463 31.9ZM267.813 33.8L267.526 34.7578L267.537 34.7612L267.549 34.7643L267.813 33.8ZM276.613 33.85L276.121 32.9794L276.113 32.9842L276.105 32.9891L276.613 33.85ZM276.863 30.65L276.356 31.5119L276.386 31.5292L276.416 31.5444L276.863 30.65ZM274.563 29.9L274.393 30.8855L274.393 30.8855L274.563 29.9ZM271.363 29.4L271.218 30.3894L271.222 30.3899L271.363 29.4ZM267.913 28.75L267.664 29.7185L267.677 29.7219L267.69 29.7249L267.913 28.75ZM264.713 27.45L265.219 26.5873L265.219 26.5873L264.713 27.45ZM262.363 25.15L261.501 25.6557L261.507 25.6666L261.514 25.6774L262.363 25.15ZM262.963 16.9L262.171 16.2903L262.166 16.2968L262.161 16.3033L262.963 16.9ZM267.263 13.85L267.629 14.7808L267.636 14.7779L267.643 14.775L267.263 13.85ZM279.563 13.3L279.769 12.3214L279.769 12.3214L279.563 13.3ZM284.313 15.05L285.219 15.4742L285.6 14.66L284.831 14.1945L284.313 15.05ZM281.713 20.6L281.205 21.4614L282.152 22.0199L282.619 21.0242L281.713 20.6ZM277.763 19.05L277.538 20.0244L277.553 20.0277L277.567 20.0306L277.763 19.05ZM270.163 19.3L269.659 18.4362L269.659 18.4362L270.163 19.3ZM269.813 22.6L269.306 23.4619L269.317 23.4682L269.328 23.4742L269.813 22.6ZM275.313 23.95L275.168 24.9394L275.184 24.9417L275.2 24.9435L275.313 23.95ZM278.813 24.6L279.062 23.6315L279.062 23.6315L278.813 24.6ZM281.963 25.9L281.444 26.7548L281.462 26.7656L281.48 26.7756L281.963 25.9ZM284.313 28.15L283.464 28.6774L283.468 28.6841L283.472 28.6908L284.313 28.15ZM283.713 36.3L284.498 36.9197L284.506 36.9097L283.713 36.3ZM279.363 39.3L279.003 38.3671L278.998 38.3692L279.363 39.3ZM272.513 39.4C270.291 39.4 268.156 39.1425 266.106 38.6299L265.621 40.5701C267.837 41.1242 270.135 41.4 272.513 41.4V39.4ZM266.124 38.6345C264.086 38.0846 262.533 37.4215 261.423 36.6714L260.303 38.3286C261.66 39.2452 263.441 39.9821 265.603 40.5655L266.124 38.6345ZM261.77 37.9211L264.37 32.3211L262.556 31.4789L259.956 37.0789L261.77 37.9211ZM262.935 32.7493C264.257 33.5707 265.791 34.2373 267.526 34.7578L268.101 32.8422C266.502 32.3627 265.136 31.7626 263.991 31.0507L262.935 32.7493ZM267.549 34.7643C269.328 35.2528 271.084 35.5 272.813 35.5V33.5C271.276 33.5 269.699 33.2805 268.078 32.8357L267.549 34.7643ZM272.813 35.5C274.634 35.5 276.139 35.2915 277.122 34.7109L276.105 32.9891C275.62 33.2752 274.593 33.5 272.813 33.5V35.5ZM277.105 34.7206C278.13 34.1415 278.763 33.2373 278.763 32.05H276.763C276.763 32.396 276.63 32.6918 276.121 32.9794L277.105 34.7206ZM278.763 32.05C278.763 31.5695 278.647 31.1008 278.379 30.6842C278.114 30.271 277.738 29.9691 277.31 29.7556L276.416 31.5444C276.589 31.6309 276.663 31.7124 276.697 31.7658C276.729 31.8158 276.763 31.8972 276.763 32.05H278.763ZM277.37 29.7881C276.662 29.3713 275.766 29.0926 274.733 28.9145L274.393 30.8855C275.294 31.0407 275.932 31.2621 276.356 31.5119L277.37 29.7881ZM274.733 28.9145C273.755 28.746 272.679 28.5778 271.505 28.41L271.222 30.3899C272.381 30.5555 273.438 30.7207 274.393 30.8855L274.733 28.9145ZM271.509 28.4106C270.403 28.248 269.278 28.0362 268.136 27.7751L267.69 29.7249C268.882 29.9971 270.057 30.2187 271.218 30.3894L271.509 28.4106ZM268.162 27.7815C267.079 27.5029 266.1 27.1036 265.219 26.5873L264.208 28.3127C265.26 28.9298 266.414 29.3971 267.664 29.7185L268.162 27.7815ZM265.219 26.5873C264.395 26.1041 263.729 25.4535 263.213 24.6226L261.514 25.6774C262.198 26.7799 263.098 27.6625 264.208 28.3127L265.219 26.5873ZM263.226 24.6443C262.776 23.8774 262.513 22.8184 262.513 21.4H260.513C260.513 23.0483 260.817 24.4893 261.501 25.6557L263.226 24.6443ZM262.513 21.4C262.513 19.9036 262.934 18.6153 263.766 17.4967L262.161 16.3033C261.059 17.7847 260.513 19.4964 260.513 21.4H262.513ZM263.756 17.5097C264.623 16.3824 265.894 15.4625 267.629 14.7808L266.898 12.9192C264.9 13.7041 263.303 14.8176 262.171 16.2903L263.756 17.5097ZM267.643 14.775C269.36 14.0699 271.458 13.7 273.963 13.7V11.7C271.269 11.7 268.9 12.0968 266.883 12.925L267.643 14.775ZM273.963 13.7C275.723 13.7 277.521 13.892 279.357 14.2785L279.769 12.3214C277.806 11.908 275.87 11.7 273.963 11.7V13.7ZM279.357 14.2785C281.18 14.6622 282.65 15.2121 283.795 15.9055L284.831 14.1945C283.443 13.3546 281.747 12.7378 279.769 12.3214L279.357 14.2785ZM283.408 14.6258L280.808 20.1758L282.619 21.0242L285.219 15.4742L283.408 14.6258ZM282.221 19.7386C280.835 18.9213 279.414 18.3603 277.959 18.0694L277.567 20.0306C278.779 20.273 279.991 20.7454 281.205 21.4614L282.221 19.7386ZM277.988 18.0756C276.62 17.76 275.278 17.6 273.963 17.6V19.6C275.115 19.6 276.306 19.74 277.538 20.0244L277.988 18.0756ZM273.963 17.6C272.183 17.6 270.695 17.832 269.659 18.4362L270.667 20.1638C271.231 19.8346 272.277 19.6 273.963 19.6V17.6ZM269.659 18.4362C268.646 19.0275 267.963 19.9145 267.963 21.1H269.963C269.963 20.8188 270.081 20.5058 270.667 20.1638L269.659 18.4362ZM267.963 21.1C267.963 22.1149 268.429 22.9458 269.306 23.4619L270.32 21.7381C270.064 21.5875 269.963 21.4184 269.963 21.1H267.963ZM269.328 23.4742C270.046 23.873 270.934 24.1669 271.961 24.3793L272.366 22.4207C271.459 22.2331 270.781 21.9937 270.299 21.7258L269.328 23.4742ZM271.961 24.3793C272.949 24.5837 274.018 24.7703 275.168 24.9394L275.459 22.9606C274.342 22.7964 273.311 22.6163 272.366 22.4207L271.961 24.3793ZM275.2 24.9435C276.32 25.0715 277.441 25.2796 278.564 25.5685L279.062 23.6315C277.852 23.3203 276.64 23.0952 275.427 22.9565L275.2 24.9435ZM278.564 25.5685C279.646 25.8465 280.603 26.244 281.444 26.7548L282.482 25.0452C281.457 24.4226 280.314 23.9535 279.062 23.6315L278.564 25.5685ZM281.48 26.7756C282.292 27.2236 282.951 27.8516 283.464 28.6774L285.163 27.6226C284.475 26.5151 283.568 25.6431 282.446 25.0244L281.48 26.7756ZM283.472 28.6908C283.936 29.4122 284.213 30.4378 284.213 31.85H286.213C286.213 30.1955 285.891 28.7545 285.154 27.6092L283.472 28.6908ZM284.213 31.85C284.213 33.3 283.784 34.5681 282.921 35.6903L284.506 36.9097C285.643 35.4319 286.213 33.7334 286.213 31.85H284.213ZM282.928 35.6804C282.065 36.7741 280.779 37.6816 279.003 38.3671L279.723 40.2329C281.747 39.4518 283.362 38.3593 284.498 36.9196L282.928 35.6804ZM278.998 38.3692C277.28 39.044 275.129 39.4 272.513 39.4V41.4C275.298 41.4 277.713 41.0227 279.729 40.2308L278.998 38.3692Z"
    fill="black" />
  <path
    d="M35.3339 104.093L34.2401 104.216C34.065 101.646 34.8194 94.9583 36.5032 84.1521C38.1871 73.3459 38.9722 67.1075 38.8583 65.4371C38.8087 64.709 38.5173 63.9217 37.9842 63.0752C37.494 62.2239 37.0169 61.5654 36.5529 61.0996L35.8526 60.3366L35.9581 59.03C38.5561 57.8319 43.1578 56.8619 49.7633 56.12C50.6463 57.6609 51.1578 59.4593 51.2979 61.5152L51.3067 61.6437C56.1969 57.2965 60.5721 54.9061 64.4325 54.4725C66.7058 54.2172 68.6183 54.6929 70.17 55.8997C71.7189 57.0637 72.5794 58.9092 72.7516 61.4363C72.9209 63.9205 72.2774 69.0639 70.821 76.8667C69.3646 84.6694 68.6933 89.4059 68.8072 91.0764C68.9181 92.7039 69.2524 93.4864 69.81 93.4238C70.582 93.3371 71.7212 92.9286 73.2273 92.1984L74.828 95.7087C70.8201 99.0505 67.0147 100.924 63.4118 101.328C61.3529 101.56 59.7294 101.202 58.5412 100.257C57.393 99.2637 56.7328 97.5036 56.5606 94.9766C56.3884 92.4496 56.9836 87.5489 58.3464 80.2746C59.7491 72.9527 60.392 68.4351 60.2753 66.7218C60.1264 64.5374 59.0869 63.5536 57.1567 63.7704C55.7413 63.9294 53.678 65.0459 50.9667 67.1199C50.7208 69.2191 50.1482 72.8657 49.2487 78.0594C47.2888 89.8893 46.43 97.5818 46.6723 101.137C44.8609 102.462 41.0815 103.448 35.3339 104.093Z"
    fill="#F20B6C" />
  <path
    d="M88.0826 98.5575C84.737 98.9333 82.0276 98.1802 79.9544 96.2982C77.8783 94.3735 76.7089 91.4837 76.4462 87.6289C76.1251 82.9174 77.2476 78.7776 79.8138 75.2093C82.377 71.5981 85.9319 69.5373 90.4785 69.0266L93.3913 68.9584C94.4002 68.543 95.3551 68.2847 96.2558 68.1835C98.4005 67.9427 99.9728 68.4998 100.973 69.8549C102.016 71.2052 102.693 73.2223 103.006 75.9062C104.802 75.6182 106.498 75.1471 108.096 74.4929L108.979 74.1347C109.3 74.4008 109.576 75.2762 109.807 76.7609L109.919 77.4603C108.056 78.6622 105.75 79.6982 102.999 80.5681C102.365 85.2142 100.761 89.2571 98.1858 92.6969C95.6109 96.1367 92.2431 98.0903 88.0826 98.5575ZM88.5243 86.0134C88.7958 89.9967 89.9395 91.8751 91.9554 91.6487C93.3709 91.4898 94.7465 90.4289 96.0822 88.4662C97.4608 86.4987 98.3414 84.1987 98.7238 81.5662C94.3488 82.0576 92.0183 80.2045 91.7322 76.0071C91.6826 75.2789 91.6958 74.5222 91.772 73.7367C91.3431 73.7849 91.0257 73.8853 90.82 74.0379C90.1434 74.8907 89.5422 76.5336 89.0165 78.9664C88.5307 81.3515 88.3667 83.7005 88.5243 86.0134Z"
    fill="#F20B6C" />
  <path
    d="M136.585 88.708C135.294 90.0614 133.562 91.2917 131.39 92.3988C129.218 93.5059 127.21 94.1631 125.366 94.3702C123.564 94.5725 122.049 94.2247 120.821 93.3269C119.59 92.3862 118.908 90.9307 118.773 88.9604C118.639 86.9902 119.338 81.3874 120.869 72.152C122.441 62.8689 123.078 56.043 122.78 51.6742C122.716 50.7319 122.505 49.5471 122.149 48.1197C126.105 46.5533 129.97 45.5581 133.745 45.1342C134.177 45.7761 134.446 46.8681 134.551 48.41C134.75 51.3225 134.09 57.8058 132.571 67.8598C131.091 77.8662 130.403 83.6189 130.505 85.118C130.607 86.6171 130.916 87.3377 131.43 87.2799C131.859 87.2318 132.763 86.8498 134.14 86.134L134.826 85.7333L136.585 88.708Z"
    fill="#F20B6C" />
  <path
    d="M152.294 66.292C152.422 68.1766 152.086 71.1708 151.285 75.2745C150.482 79.3354 150.121 81.9655 150.202 83.1647C150.284 84.364 150.561 84.9372 151.033 84.8842C151.504 84.8312 152.348 84.5207 153.562 83.9527L154.124 83.6306L155.501 86.7129C154.118 87.9903 152.363 89.1802 150.234 90.2825C148.147 91.38 146.225 92.0275 144.466 92.225C142.708 92.4225 141.28 92.0865 140.184 91.217C139.13 90.3427 138.54 88.9846 138.415 87.1429C138.286 85.2583 138.607 82.3522 139.377 78.4247C140.186 74.4494 140.556 71.9478 140.486 70.9199C140.378 69.3351 139.718 67.8987 138.507 66.6105L137.944 65.9616L138.062 64.8477C140.246 63.9119 144.555 63.0827 150.989 62.3601C151.727 63.054 152.163 64.3646 152.294 66.292ZM146.851 57.7752C144.921 57.992 143.363 57.649 142.178 56.7463C141.036 55.8388 140.41 54.5927 140.302 53.0079C140.192 51.3803 140.764 49.9565 142.021 48.7363C143.318 47.4686 144.931 46.7263 146.861 46.5095C148.791 46.2927 150.323 46.5739 151.457 47.3529C152.591 48.1319 153.213 49.3352 153.324 50.9628C153.435 52.5904 152.866 54.0785 151.618 55.4271C150.413 56.7709 148.824 57.5536 146.851 57.7752Z"
    fill="#F20B6C" />
  <path
    d="M159.804 90.1139L158.196 90.2946C157.989 87.2535 158.279 82.9482 159.066 77.3786C159.893 71.7613 160.287 68.6529 160.246 68.0532C160.205 67.4536 159.967 66.8114 159.531 66.1266C159.095 65.4418 158.671 64.9284 158.259 64.5862L157.641 64.0731L157.704 63.0949C160.136 62.0017 164.505 61.101 170.81 60.3929C171.349 61.325 171.742 62.3383 171.989 63.4326C175.555 60.5721 178.624 58.9973 181.198 58.7083C182.57 58.5542 183.753 58.7881 184.746 59.4103C185.783 60.0276 186.535 60.9143 187.002 62.0702C190.381 59.0148 193.551 57.3209 196.51 56.9885C198.44 56.7717 199.983 57.2028 201.137 58.2816C202.331 59.3128 202.985 60.6636 203.098 62.334C203.209 63.9616 202.918 66.6701 202.226 70.4596C201.533 74.2491 201.223 76.6792 201.296 77.75C201.366 78.7779 201.573 79.2726 201.916 79.2341L205.205 78.0231L206.582 81.1054C205.365 82.2779 203.649 83.4201 201.434 84.532C199.262 85.6391 197.276 86.2939 195.474 86.4962C191.785 86.9105 189.814 85.2545 189.56 81.5281C189.452 79.9434 189.719 77.1944 190.36 73.2813C191.001 69.3682 191.293 67.0047 191.238 66.1909C191.179 65.3343 190.829 64.9421 190.185 65.0144C189.284 65.1155 188.344 65.588 187.364 66.4317C187.279 67.0886 187.041 68.6691 186.65 71.1731C185.823 76.7904 185.554 81.7192 185.843 85.9595C183.919 86.9092 180.105 87.7044 174.4 88.3451C174.24 87.8884 174.099 86.782 173.98 85.026C173.86 83.2699 174.12 80.1116 174.76 75.5512C175.4 70.9908 175.697 68.3679 175.65 67.6826C175.604 66.9973 175.28 66.6884 174.68 66.7558C173.95 66.8377 173.03 67.2864 171.919 68.1017C171.84 68.8443 171.559 70.7532 171.077 73.8285C170.048 80.2885 169.631 84.9533 169.827 87.823C167.863 88.8204 164.523 89.584 159.804 90.1139Z"
    fill="#F20B6C" />
  <path
    d="M222.413 58.4168C222.541 60.3014 222.205 63.2956 221.404 67.3993C220.601 71.4602 220.24 74.0903 220.321 75.2896C220.403 76.4888 220.68 77.062 221.152 77.009C221.623 76.956 222.467 76.6455 223.681 76.0775L224.243 75.7554L225.62 78.8377C224.237 80.1151 222.482 81.305 220.353 82.4073C218.266 83.5048 216.344 84.1523 214.585 84.3498C212.827 84.5473 211.399 84.2113 210.303 83.3418C209.249 82.4675 208.659 81.1094 208.534 79.2677C208.405 77.3831 208.726 74.477 209.496 70.5495C210.305 66.5742 210.675 64.0726 210.605 63.0447C210.497 61.4599 209.837 60.0235 208.626 58.7353L208.063 58.0864L208.181 56.9725C210.365 56.0367 214.674 55.2075 221.108 54.4849C221.846 55.1788 222.282 56.4894 222.413 58.4168ZM216.97 49.9C215.04 50.1168 213.482 49.7738 212.297 48.8711C211.155 47.9636 210.529 46.7175 210.421 45.1327C210.311 43.5051 210.883 42.0813 212.14 40.8611C213.437 39.5934 215.05 38.8511 216.98 38.6343C218.91 38.4175 220.442 38.6987 221.576 39.4777C222.71 40.2567 223.332 41.46 223.443 43.0876C223.554 44.7152 222.985 46.2033 221.737 47.5519C220.532 48.8957 218.943 49.6784 216.97 49.9Z"
    fill="#F20B6C" />
  <path
    d="M248.421 56.8554L242.857 57.0271C241.664 64.8865 241.024 69.447 240.937 70.7083C240.893 71.9649 240.898 73.0001 240.954 73.8139C241.006 74.5848 241.29 74.9414 241.805 74.8836C242.405 74.8161 243.516 74.303 245.136 73.3442L246.89 76.2546C245.602 77.6509 243.937 78.8953 241.893 79.988C239.85 81.0807 237.842 81.7378 235.869 81.9594C233.939 82.1762 232.361 81.857 231.136 81.002C229.908 80.1041 229.231 78.7343 229.105 76.8926C228.98 75.0508 229.314 72.0352 230.109 67.8458C230.904 63.6565 231.406 60.5574 231.615 58.5486C230.592 58.7499 229.079 59.0708 227.078 59.5114C226.845 58.6312 226.702 57.8056 226.65 57.0346C226.594 56.2209 226.64 55.3094 226.787 54.3001L231.935 53.7221C231.94 53.1604 231.834 51.2949 231.618 48.1254L231.31 45.5057C235.377 43.6678 239.298 42.5369 243.072 42.113C243.419 42.7646 243.651 43.947 243.768 45.6602C243.882 47.3307 243.755 49.5892 243.387 52.4358L249.177 51.7855C249.297 53.5416 249.045 55.2315 248.421 56.8554Z"
    fill="#F20B6C" />
  <path
    d="M270.862 68.5127C271.043 71.1682 269.952 73.5566 267.59 75.6777C265.267 77.7512 262.455 78.9734 259.152 79.3444C255.85 79.7153 253.088 79.4644 250.867 78.5917C248.69 77.7141 247.567 76.7828 247.5 75.7976C247.43 74.7697 247.986 73.4125 249.168 71.726C250.389 69.992 251.678 68.9193 253.033 68.5082C255.079 69.3574 257.021 71.5346 258.859 75.0398C260.103 74.9001 260.697 74.4234 260.642 73.6096C260.601 73.01 260.391 72.4724 260.013 71.997C259.635 71.5216 259.35 71.1436 259.158 70.863C258.966 70.5825 258.638 70.2093 258.174 69.7435C257.707 69.2349 257.358 68.8641 257.126 68.6312C255.966 67.4667 254.92 66.3972 253.99 65.4228C251.756 63.0841 250.573 60.9511 250.442 59.0237C250.307 57.0535 250.82 55.3775 251.979 53.9957C253.975 51.5704 257.053 50.1241 261.213 49.6568C263.83 49.363 265.945 49.6433 267.559 50.4978C269.171 51.3095 270.045 52.7219 270.182 54.735C270.316 56.7052 269.291 59.1078 267.107 61.9426C269.467 64.2239 270.719 66.414 270.862 68.5127ZM265.75 57.2397C266.209 56.3681 266.417 55.611 266.373 54.9686C266.329 54.3261 266.017 53.8649 265.436 53.5848C264.855 53.3048 264.178 53.2082 263.406 53.2949C262.634 53.3816 262.047 53.6418 261.644 54.0754C261.282 54.4614 261.121 54.9543 261.161 55.5539C261.202 56.1535 262.215 57.3777 264.199 59.2265C264.771 58.7307 265.288 58.0685 265.75 57.2397Z"
    fill="#F20B6C" />
</svg>