<svg width="244" height="56" viewBox="0 0 244 56" fill="none" xmlns="http://www.w3.org/2000/svg">
  <path
    d="M12.2613 52.4974C9.40094 52.7476 6.92067 51.6746 4.8205 49.2782C2.71735 46.8477 1.48357 43.5499 1.11918 39.3849C0.754779 35.2198 1.06913 31.3737 2.06222 27.8467C3.05232 24.2856 4.6528 21.3247 6.86364 18.964C9.07448 16.6032 11.5332 15.3045 14.2398 15.0677C16.9771 14.8282 19.2359 15.3186 21.0163 16.5389C22.8274 17.7565 23.8165 19.3212 23.9838 21.2331C24.1481 23.1108 23.781 24.7597 22.8825 26.18C21.8983 26.2661 20.7701 26.124 19.4981 25.7537C18.226 25.3833 17.2525 24.8837 16.5776 24.2547L17.0017 19.0058C16.2187 18.5583 15.2275 18.387 14.028 18.492C12.1518 18.6561 10.6478 20.5938 9.51585 24.3049C8.38092 27.9819 8.04196 32.4322 8.49894 37.6556C8.80062 41.1037 9.52764 43.5686 10.68 45.0502C11.8601 46.495 13.1884 47.1529 14.6647 47.0237C17.0944 46.8111 19.3214 45.3434 21.3456 42.6207L23.4029 44.3499C23.1124 44.9258 22.563 45.7307 21.7547 46.7646C20.9464 47.7986 20.14 48.6776 19.3356 49.4016C18.5281 50.0914 17.4856 50.7503 16.2078 51.3781C14.9301 52.0059 13.6146 52.379 12.2613 52.4974Z"
    fill="#F20B6C" />
  <path
    d="M32.8371 50.6972C30.7149 50.8829 28.9824 50.2088 27.6395 48.6751C26.2936 47.1071 25.4908 44.8381 25.2309 41.8679C24.8994 38.0784 25.5214 34.7386 27.0971 31.8487C28.7036 28.956 31.1215 27.3684 34.351 27.0859L36.0208 27.043C36.5168 26.69 37.0877 26.4853 37.7336 26.4288C40.1634 26.2162 41.6008 28.6533 42.0458 33.7402C43.3008 33.5616 44.5608 33.2621 45.8257 32.8418L46.546 32.5724L46.9975 34.5454C46.0243 35.1122 44.693 35.6586 43.0035 36.1849L42.0987 36.4704C41.828 40.1063 40.9171 43.3337 39.3662 46.1526C37.8123 48.9375 35.636 50.4523 32.8371 50.6972ZM34.9431 46.0752C36.2349 45.9622 37.3076 44.9395 38.1613 43.0071C39.0457 41.0721 39.5982 39.0629 39.8189 36.9795C36.5279 37.2674 34.7629 36.0458 34.524 33.3146C34.4284 32.2221 34.5387 31.1804 34.8549 30.1895L35.0408 29.6573C34.9118 29.5997 34.755 29.5791 34.5705 29.5952C34.386 29.6113 34.2505 29.6576 34.1642 29.7339C33.4431 30.3475 32.8323 31.6909 32.3319 33.7644C31.8315 35.8378 31.6948 38.1719 31.9218 40.7665C32.2444 44.4536 33.2515 46.2232 34.9431 46.0752Z"
    fill="#F20B6C" />
  <path
    d="M45.7852 49.1L44.9086 49.1767C44.7683 47.5721 44.93 44.4618 45.394 39.8459C45.8886 35.2272 46.1091 32.6106 46.0553 31.9961C45.9568 30.8695 45.4217 29.7123 44.45 28.5244L43.981 27.9463L43.9689 27.2765C45.5849 26.6191 48.223 26.1303 51.883 25.8101C52.3336 26.3555 52.6415 27.395 52.8067 28.9286C55.2824 26.4071 57.4429 25.0656 59.2883 24.9042C60.3956 24.8073 61.3095 25.1574 62.03 25.9544C62.7813 26.7487 63.2137 27.7945 63.3272 29.0918C63.4378 30.355 63.2767 32.5879 62.8441 35.7907C62.4115 38.9935 62.243 41.1411 62.3385 42.2336C62.4311 43.2919 62.6005 43.8103 62.8465 43.7888C63.0311 43.7726 63.6486 43.3918 64.6991 42.6463L65.2258 42.2906L66.213 44.0103C65.9601 44.3076 65.6209 44.6813 65.1954 45.1313C64.7699 45.5814 63.958 46.22 62.7597 47.0473C61.5892 47.8377 60.5118 48.276 59.5276 48.3621C57.2824 48.5585 56.0358 47.2399 55.7879 44.4063C55.6833 43.2114 55.829 40.9798 56.2249 37.7114C56.6515 34.4404 56.8245 32.344 56.7439 31.4222C56.6632 30.5004 56.3615 30.0624 55.8386 30.1082C54.9467 30.1862 53.8921 30.7085 52.675 31.675C52.6336 32.2634 52.4604 33.8266 52.1556 36.3646C51.548 41.8188 51.3413 45.6554 51.5355 47.8745C50.5008 48.4466 48.584 48.8551 45.7852 49.1Z"
    fill="#F20B6C" />
  <path
    d="M79.4944 23.7556C79.4986 24.5121 79.3084 25.5263 78.9238 26.7984C77.7431 26.7641 76.5838 26.7967 75.4458 26.8963L75.2612 26.9124C75.3531 35.4015 75.2985 41.6845 75.0973 45.7615C74.8961 49.8384 74.4197 52.7182 73.6682 54.4008C72.558 54.4636 71.3897 54.3938 70.1633 54.1914C68.9706 54.0206 68.1456 53.8004 67.6881 53.5308C68.2052 50.9398 68.6103 47.0686 68.9035 41.9172C69.2273 36.7631 69.3087 32.0258 69.1477 27.7053C68.2925 27.8489 67.3495 28.0519 66.3187 28.314C66.1876 27.8783 66.1026 27.4385 66.0638 26.9947C66.022 26.5167 66.0238 25.8286 66.0691 24.9302L69.0218 24.6718C68.8234 21.6963 68.7647 19.4309 68.8456 17.8758C68.9757 15.1123 69.6348 12.9046 70.823 11.2526C72.0389 9.56372 73.7079 8.62647 75.8301 8.4408C77.1834 8.32241 78.2744 8.57097 79.103 9.1865C79.9594 9.76519 80.4504 10.7715 80.5758 12.2054C80.7013 13.6392 80.2797 15.551 79.3111 17.9406C78.3394 20.2961 76.9704 22.3596 75.2038 24.131L79.4944 23.7556ZM75.0138 20.8967C76.1148 19.6651 76.9438 18.3369 77.501 16.9121C78.0582 15.4873 78.289 14.2287 78.1934 13.1362C78.0948 12.0096 77.7226 11.4745 77.0767 11.5311C75.7234 11.6495 75.0131 13.4489 74.9457 16.9293C74.9242 18.1008 74.9469 19.4233 75.0138 20.8967Z"
    fill="#F20B6C" />
  <path
    d="M89.313 25.4767C89.4385 26.9105 89.2398 29.422 88.717 33.0111C88.1912 36.566 87.9762 38.8897 88.0717 39.9822C88.1643 41.0405 88.349 41.5576 88.6258 41.5334C88.8104 41.5172 89.4894 41.131 90.6629 40.3747L91.1897 40.019L92.1308 41.7428C91.8778 42.0401 91.5386 42.4138 91.1131 42.8638C90.6876 43.3139 89.8757 43.9525 88.6774 44.7798C87.4761 45.5729 86.3373 46.0166 85.2608 46.1107C84.1843 46.2049 83.3071 45.9204 82.6293 45.2573C81.9484 44.5601 81.5542 43.5969 81.4467 42.3679C81.3362 41.1047 81.5265 38.852 82.0176 35.6097C82.5058 32.3333 82.7081 30.2171 82.6244 29.2612C82.499 27.8273 81.9812 26.5137 81.071 25.3205L80.602 24.7423L80.5899 24.0726C82.1752 23.4179 84.7978 22.9304 88.4579 22.6102C88.9025 23.0873 89.1876 24.0428 89.313 25.4767ZM83.3099 17.436C82.635 16.807 82.2483 15.9292 82.1498 14.8026C82.0512 13.6759 82.3798 12.6496 83.1355 11.7234C83.9221 10.7946 84.8689 10.2817 85.9762 10.1848C87.0834 10.088 87.9745 10.354 88.6493 10.983C89.3242 11.612 89.7109 12.4898 89.8095 13.6164C89.9051 14.7089 89.5442 15.7209 88.7269 16.6524C87.9404 17.5813 87.0089 18.0928 85.9325 18.187C84.856 18.2811 83.9818 18.0308 83.3099 17.436Z"
    fill="#F20B6C" />
  <path
    d="M100.337 49.7455C99.3817 50.5171 98.9324 51.2273 98.9892 51.8759C99.0459 52.5246 99.3973 52.8206 100.043 52.7641C100.72 52.7049 101.442 52.2805 102.21 51.491C102.98 50.7355 103.574 49.5483 103.99 47.9295C102.541 48.3659 101.323 48.9712 100.337 49.7455ZM111.602 20.6886C111.737 20.8144 111.825 21.1162 111.867 21.5942C111.906 22.038 111.918 22.5357 111.905 23.0874C111.888 23.6048 111.883 24.7921 111.891 26.6491C111.898 28.5061 111.885 30.1241 111.851 31.5032C111.626 47.0034 108.084 55.0535 101.226 55.6536C100.118 55.7505 99.0751 55.5149 98.0957 54.947C97.147 54.3764 96.6278 53.579 96.5382 52.5548C96.4188 51.1892 97.0633 49.8771 98.4718 48.6187C99.8803 47.3602 101.834 46.312 104.333 45.4742C104.33 45.44 104.381 44.954 104.484 44.0161C104.588 43.0781 104.646 42.3163 104.656 41.7305C102.942 43.3942 101.27 44.2973 99.6403 44.4399C98.0409 44.5798 96.6572 43.9956 95.489 42.6874C94.3516 41.3765 93.6484 39.1847 93.3796 36.1121C93.0272 32.0836 93.5495 28.6666 94.9466 25.861C96.3408 23.0214 98.3758 21.4845 101.052 21.2504C102.559 21.1185 104.086 21.3977 105.634 22.0879C107.149 21.3361 108.814 20.8809 110.628 20.7221L111.602 20.6886ZM103.392 24.0901C102.069 24.2058 101.128 25.4922 100.568 27.9493C100.006 30.3722 99.8511 33.0346 100.105 35.9365C100.356 38.8043 101.066 40.187 102.234 40.0848C103.003 40.0175 103.882 39.6138 104.871 38.8736C105.231 33.0628 105.432 28.2806 105.476 24.527C104.579 24.1927 103.884 24.0471 103.392 24.0901Z"
    fill="#F20B6C" />
  <path
    d="M115.429 38.982C115.3 37.514 115.482 34.9868 115.974 31.4004C116.463 27.7799 116.673 25.5771 116.604 24.7918C116.533 23.9725 115.885 22.9455 114.661 21.7109L114.649 21.0412C116.699 20.3802 119.431 19.9004 122.845 19.6017C123.037 20.0321 123.184 20.8277 123.286 21.9884C123.387 23.1492 123.173 25.662 122.644 29.5269C122.114 33.3917 121.89 35.7851 121.97 36.7069C122.051 37.6286 122.399 38.0626 123.014 38.0088C123.906 37.9308 124.905 37.4821 126.011 36.663C126.062 35.8328 126.232 34.2355 126.521 31.8709C127.151 26.3117 127.362 22.3542 127.156 19.9985C128.191 19.4264 130.108 19.0179 132.907 18.773L133.783 18.6963C133.923 20.3009 133.768 23.4795 133.316 28.232C132.861 32.9504 132.669 35.7192 132.741 36.5386C132.809 37.3238 132.998 37.703 133.305 37.676C133.49 37.6599 134.33 37.1735 135.827 36.2169L136.847 37.779C134.331 40.5448 132.042 42.0179 129.982 42.1982C128.998 42.2843 128.125 42.051 127.364 41.4984C126.633 40.9431 126.179 40.1744 126 39.1924C123.706 41.6636 121.544 42.988 119.514 43.1656C118.437 43.2598 117.511 42.9452 116.735 42.2219C115.989 41.4959 115.554 40.4159 115.429 38.982Z"
    fill="#F20B6C" />
  <path
    d="M139.354 40.9138L139.031 40.942C138.946 40.6743 138.861 40.0625 138.777 39.1065C138.691 38.1165 138.876 35.4514 139.333 31.1112C139.79 26.7711 139.992 24.2938 139.938 23.6792C139.846 22.6209 139.313 21.4978 138.342 20.31L137.873 19.7318L137.861 19.062C139.477 18.4046 142.115 17.9158 145.775 17.5956C146.221 18.4509 146.515 19.6809 146.655 21.2855C146.94 20.6414 147.576 19.7601 148.563 18.6417C149.549 17.5234 150.612 16.9144 151.75 16.8148C153.411 16.6695 154.382 18.2015 154.662 21.4106C154.526 21.6289 154.335 21.9209 154.088 22.2865C153.869 22.6153 153.385 23.1048 152.636 23.7552C151.918 24.4028 151.196 24.8272 150.469 25.0284C150.439 25.031 150.137 24.593 149.564 23.7143C148.991 22.8356 148.582 22.407 148.336 22.4285C147.594 22.803 146.962 23.3743 146.44 24.1424C145.644 31.3331 145.337 35.9698 145.519 38.0523C145.585 38.8034 145.646 39.3312 145.704 39.6358C144.669 40.2079 142.553 40.6339 139.354 40.9138Z"
    fill="#F20B6C" />
  <path
    d="M167.116 16.9669C167.172 16.8932 167.302 16.4346 167.507 15.5911C168.953 15.4646 170.932 15.773 173.446 16.5164C172.925 19.4172 172.569 22.4412 172.38 25.5883C172.187 28.7013 172.149 30.9235 172.266 32.255C172.379 33.5523 172.559 34.1902 172.805 34.1686C172.99 34.1525 173.638 33.769 174.75 33.0181L175.277 32.6624L176.264 34.3821C176.011 34.6794 175.672 35.0531 175.246 35.5031C174.852 35.9505 174.07 36.5864 172.903 37.411C171.732 38.2014 170.655 38.6397 169.671 38.7258C167.764 38.8927 166.573 38.0336 166.098 36.1487C164.297 38.2327 162.597 39.3447 160.997 39.4846C159.429 39.6219 158.031 39.0561 156.804 37.7874C155.608 36.516 154.882 34.4123 154.625 31.4762C154.225 26.9015 154.756 23.2257 156.217 20.4489C157.676 17.638 159.605 16.1276 162.004 15.9177C163.726 15.7671 165.43 16.1168 167.116 16.9669ZM163.385 34.8896C164.123 34.825 164.925 34.4281 165.791 33.6987C165.585 28.8661 165.891 24.0404 166.709 19.2214C165.748 18.8583 164.944 18.705 164.298 18.7615C163.191 18.8584 162.343 20.1538 161.756 22.6477C161.196 25.1047 161.043 27.7842 161.297 30.6861C161.551 33.588 162.247 34.9892 163.385 34.8896Z"
    fill="#F20B6C" />
  <path
    d="M189.898 14.0965C189.912 14.9554 189.737 15.9683 189.374 17.1353C188.193 17.101 187.08 17.1296 186.034 17.2211L185.204 17.2937C184.455 25.0307 184.163 29.838 184.327 31.7157C184.414 32.7058 184.642 33.1847 185.011 33.1524C185.411 33.1174 186.404 32.6005 187.99 31.6017L188.968 33.219C186.452 35.9848 184.025 37.47 181.687 37.6745C180.611 37.7687 179.686 37.4712 178.913 36.782C178.171 36.0901 177.746 35.1296 177.638 33.9006C177.528 32.6374 177.527 31.2099 177.635 29.6179C177.775 28.0232 177.977 26.0791 178.241 23.7855C178.502 21.4578 178.679 19.5846 178.772 18.166C177.643 18.368 176.806 18.5444 176.261 18.6953C176.164 18.291 176.086 17.7475 176.026 17.0647C175.963 16.3477 175.958 15.7633 176.012 15.3114L178.918 15.0571C179.003 13.192 178.974 11.4401 178.83 9.80142L178.645 8.21795L178.632 8.06432C180.95 6.93266 183.171 6.27399 185.293 6.08832C185.476 6.76036 185.612 7.60847 185.701 8.63267C185.791 9.65687 185.698 11.6086 185.423 14.488L189.898 14.0965Z"
    fill="#F20B6C" />
  <path
    d="M199.289 15.855C199.414 17.2889 199.216 19.8004 198.693 23.3894C198.167 26.9444 197.952 29.2681 198.048 30.3606C198.14 31.4189 198.325 31.936 198.602 31.9117C198.786 31.8956 199.465 31.5094 200.639 30.7531L201.166 30.3974L202.107 32.1211C201.854 32.4185 201.515 32.7921 201.089 33.2422C200.664 33.6922 199.852 34.3309 198.653 35.1581C197.452 35.9513 196.313 36.3949 195.237 36.4891C194.16 36.5833 193.283 36.2988 192.605 35.6357C191.924 34.9384 191.53 33.9753 191.423 32.7462C191.312 31.4831 191.502 29.2303 191.994 25.988C192.482 22.7116 192.684 20.5954 192.6 19.6395C192.475 18.2056 191.957 16.8921 191.047 15.6989L190.578 15.1207L190.566 14.4509C192.151 13.7962 194.774 13.3087 198.434 12.9885C198.878 13.4657 199.163 14.4212 199.289 15.855ZM193.286 7.81432C192.611 7.18533 192.224 6.30753 192.126 5.18092C192.027 4.0543 192.356 3.02791 193.111 2.10176C193.898 1.17292 194.845 0.660061 195.952 0.563191C197.059 0.46632 197.95 0.732375 198.625 1.36136C199.3 1.99034 199.687 2.86814 199.785 3.99476C199.881 5.08724 199.52 6.09924 198.703 7.03078C197.916 7.95962 196.985 8.47113 195.908 8.56531C194.832 8.65949 193.958 8.40916 193.286 7.81432Z"
    fill="#F20B6C" />
  <path
    d="M210.529 35.1512C208.406 35.3369 206.674 34.6628 205.331 33.1291C203.985 31.5612 203.182 29.2921 202.922 26.3219C202.591 22.5324 203.213 19.1927 204.789 16.3027C206.395 13.4101 208.813 11.8225 212.042 11.5399L213.712 11.497C214.208 11.144 214.779 10.9393 215.425 10.8828C217.855 10.6702 219.292 13.1073 219.737 18.1942C220.992 18.0156 222.252 17.7161 223.517 17.2959L224.237 17.0264L224.689 18.9994C223.716 19.5662 222.384 20.1127 220.695 20.6389L219.79 20.9244C219.519 24.5603 218.609 27.7877 217.058 30.6067C215.504 33.3915 213.327 34.9064 210.529 35.1512ZM212.635 30.5292C213.926 30.4162 214.999 29.3935 215.853 27.4612C216.737 25.5261 217.29 23.5169 217.51 21.4335C214.219 21.7214 212.454 20.4998 212.215 17.7686C212.12 16.6761 212.23 15.6344 212.546 14.6435L212.732 14.1113C212.603 14.0537 212.447 14.0331 212.262 14.0492C212.077 14.0654 211.942 14.1116 211.856 14.188C211.135 14.8015 210.524 16.1449 210.023 18.2184C209.523 20.2919 209.386 22.6259 209.613 25.2205C209.936 28.9077 210.943 30.6772 212.635 30.5292Z"
    fill="#F20B6C" />
  <path
    d="M223.477 33.554L222.6 33.6307C222.46 32.0261 222.622 28.9158 223.085 24.2999C223.58 19.6812 223.801 17.0647 223.747 16.4501C223.648 15.3235 223.113 14.1663 222.141 12.9785L221.672 12.4003L221.66 11.7305C223.276 11.0731 225.914 10.5843 229.574 10.2641C230.025 10.8095 230.333 11.849 230.498 13.3826C232.974 10.8611 235.134 9.51963 236.98 9.35818C238.087 9.26131 239.001 9.61137 239.721 10.4084C240.473 11.2027 240.905 12.2485 241.019 13.5458C241.129 14.809 240.968 17.0419 240.536 20.2447C240.103 23.4475 239.934 25.5951 240.03 26.6876C240.123 27.7459 240.292 28.2643 240.538 28.2428C240.723 28.2266 241.34 27.8458 242.391 27.1003L242.917 26.7446L243.905 28.4643C243.652 28.7616 243.312 29.1353 242.887 29.5853C242.461 30.0354 241.649 30.674 240.451 31.5013C239.281 32.2917 238.203 32.73 237.219 32.8161C234.974 33.0125 233.727 31.694 233.479 28.8603C233.375 27.6654 233.52 25.4338 233.916 22.1655C234.343 18.8944 234.516 16.798 234.435 15.8762C234.355 14.9544 234.053 14.5164 233.53 14.5622C232.638 14.6402 231.584 15.1625 230.367 16.129C230.325 16.7174 230.152 18.2807 229.847 20.8186C229.24 26.2728 229.033 30.1094 229.227 32.3285C228.192 32.9006 226.276 33.3091 223.477 33.554Z"
    fill="#F20B6C" />
</svg>